<svg width="210" height="52" viewBox="0 0 210 52" fill="none" xmlns="http://www.w3.org/2000/svg">
<g clip-path="url(#clip0_506_1752)">
<path d="M23.6504 22.6763C24.7355 22.6763 25.9573 20.9675 25.9573 20.9675C24.0585 21.2333 22.1308 20.7491 20.583 19.6175C21.0444 21.7535 22.5653 22.6763 23.6504 22.6763Z" fill="#EEB822"/>
<path d="M43.7036 0H8.30496C6.10521 0.00450653 3.99672 0.879764 2.44046 2.43442C0.884199 3.98909 0.00677081 6.09667 0 8.29642V43.695C0.00676052 45.8956 0.883913 48.0041 2.43993 49.5601C3.99595 51.1161 6.10442 51.9932 8.30496 52H43.7036C45.9026 51.991 48.0089 51.1129 49.5631 49.5571C51.1173 48.0013 51.9932 45.8941 52 43.695V8.29642C51.9932 6.09815 51.117 3.99185 49.5626 2.43743C48.0082 0.883012 45.9019 0.00676048 43.7036 0ZM16.1827 42.5843C15.6102 41.7299 13.4998 38.2011 14.1919 32.4338C14.1919 32.4338 12.8078 34.5784 13.3375 40.602C11.0704 38.6833 9.27533 36.2684 8.09135 33.5445C9.10048 30.515 10.9675 27.8436 13.4657 25.8547C13.4657 25.8547 12.671 25.3848 7.48471 30.9813L7.2882 31.2034C6.7795 29.4573 6.52061 27.6479 6.51922 25.8291C6.52136 24.9716 6.58131 24.1153 6.69865 23.2659C8.68991 21.6763 10.9749 20.4946 13.4229 19.7884C11.3062 19.721 9.21397 20.2574 7.39073 21.3349L7.00624 21.5399C7.42695 19.6659 8.12684 17.8658 9.08248 16.1998L9.79165 15.3881H22.326C22.326 15.3881 28.1275 16.5245 28.4522 17.9086C28.7769 19.2928 28.4522 19.2586 28.6231 19.5577C28.7939 19.8567 28.6231 19.8909 29.4775 20.0532C30.3319 20.2156 34.4502 21.7621 34.4502 25.9231V27.7003C33.3711 26.5709 31.893 25.9085 30.3319 25.8547C27.8968 25.8547 25.0858 26.0855 23.7358 26.8117C23.3086 27.0424 26.769 27.0424 27.2047 27.1107C27.6405 27.1791 30.6993 27.9652 31.0923 29.1186C31.4854 30.2721 30.2977 28.5547 28.1873 28.5205C26.0769 28.4864 22.1209 28.5205 19.7542 31.4939C17.3874 34.4673 18.276 38.5002 22.5396 44.8485C20.305 44.4695 18.1538 43.7032 16.1827 42.5843ZM31.6904 13.4144H11.0733C13.1059 10.9996 15.6986 9.11897 18.6251 7.93646C21.5516 6.75395 24.723 6.30552 27.8626 6.6303L31.6904 13.4144ZM29.9389 6.96352C33.0022 7.62813 35.8584 9.0266 38.262 11.0388C40.6656 13.0509 42.5447 15.6166 43.7378 18.5153L40.0039 24.3595L29.9389 6.96352ZM21.3947 38.7309H40.2859C38.4759 40.7618 36.2565 42.3866 33.7737 43.4984C31.2909 44.6102 28.6008 45.1839 25.8804 45.1817C25.4361 45.1817 25.026 45.1817 24.5646 45.1305L21.3947 38.7309ZM34.4758 37.4065L44.4469 20.5061C45.2758 23.3691 45.4294 26.3854 44.8957 29.3179C44.362 32.2503 43.1555 35.0191 41.371 37.4065H34.4758Z" fill="#EEB822"/>
<path d="M11.0732 13.4144H31.6904L27.8626 6.63033C24.723 6.30555 21.5516 6.75398 18.6251 7.93649C15.6986 9.11901 13.1059 10.9997 11.0732 13.4144Z" fill="#52170F"/>
<path d="M43.7378 18.5153C42.5447 15.6166 40.6657 13.0509 38.2621 11.0387C35.8585 9.02659 33.0023 7.62811 29.939 6.9635L40.004 24.3595L43.7378 18.5153Z" fill="#52170F"/>
<path d="M44.4298 20.5061L34.4587 37.4065H41.3539C43.1384 35.0191 44.3449 32.2504 44.8786 29.3179C45.4123 26.3855 45.2587 23.3692 44.4298 20.5061Z" fill="#52170F"/>
<path d="M40.2689 38.7308H21.3777L24.5476 45.1304C24.9833 45.1304 25.402 45.1817 25.8634 45.1817C28.5838 45.1839 31.2739 44.6102 33.7567 43.4984C36.2396 42.3865 38.4589 40.7617 40.2689 38.7308Z" fill="#52170F"/>
<path d="M19.7628 31.5452C22.1295 28.5718 26.0855 28.5462 28.1959 28.5718C30.3063 28.5975 31.494 30.3576 31.101 29.1699C30.7079 27.9823 27.6405 27.2218 27.2133 27.162C26.7861 27.1022 23.3172 27.0937 23.7444 26.863C25.0944 26.1367 27.9054 25.9402 30.3405 25.906C31.9016 25.9598 33.3797 26.6222 34.4588 27.7516V25.9744C34.4588 21.8305 30.3405 20.2669 29.4861 20.1045C28.6317 19.9422 28.794 19.908 28.6317 19.609C28.4693 19.3099 28.794 19.3441 28.4608 17.9599C28.1276 16.5758 22.3346 15.4394 22.3346 15.4394H9.80026L9.09109 16.2511C8.13545 17.9171 7.43556 19.7172 7.01485 21.5912L7.39934 21.3862C9.22258 20.3087 11.3148 19.7723 13.4315 19.8397C10.9835 20.5459 8.69851 21.7276 6.70726 23.3171C6.58992 24.1666 6.52997 25.0229 6.52783 25.8804C6.52922 27.6992 6.78811 29.5086 7.29681 31.2547L7.49332 31.0326C12.7053 25.3934 13.4743 25.906 13.4743 25.906C10.9761 27.8949 9.10909 30.5663 8.09996 33.5958C9.28394 36.3197 11.079 38.7346 13.3461 40.6533C12.7822 34.6297 14.2005 32.4851 14.2005 32.4851C13.5084 38.2524 15.6189 41.7897 16.1913 42.6356C18.1616 43.7734 20.316 44.557 22.5567 44.9511C18.2846 38.5515 17.4388 34.4417 19.7628 31.5452ZM25.9573 20.9589C25.9573 20.9589 24.7355 22.6678 23.6504 22.6678C22.5653 22.6678 21.0871 21.745 20.583 19.6004C22.1296 20.735 24.0574 21.2224 25.9573 20.9589Z" fill="#52170F"/>
<path d="M112.749 21.5143H112.741C110.896 21.5143 109.4 23.01 109.4 24.8551V40.2944C109.4 42.1395 110.896 43.6352 112.741 43.6352H112.749C114.594 43.6352 116.09 42.1395 116.09 40.2944V24.8551C116.09 23.01 114.594 21.5143 112.749 21.5143Z" fill="white"/>
<path d="M147.575 21.5143H147.567C145.722 21.5143 144.226 23.01 144.226 24.8551V40.2944C144.226 42.1395 145.722 43.6352 147.567 43.6352H147.575C149.42 43.6352 150.916 42.1395 150.916 40.2944V24.8551C150.916 23.01 149.42 21.5143 147.575 21.5143Z" fill="white"/>
<path d="M163.433 43.6267H156.743V11.9106H177.155V17.2251H163.433V24.7696H176.293V30.0841H163.433V43.6267Z" fill="white"/>
<path d="M193.62 31.6648L186.076 43.6267H178.702L189.809 27.162L179.351 11.9021H187.75L194.269 22.702L201.105 11.9021H208.376L197.918 27.162L209.025 43.6267H200.686L193.62 31.6648Z" fill="white"/>
<path d="M113.074 18.2932C115.046 18.2932 116.645 16.6942 116.645 14.7217C116.645 12.7492 115.046 11.1502 113.074 11.1502C111.101 11.1502 109.502 12.7492 109.502 14.7217C109.502 16.6942 111.101 18.2932 113.074 18.2932Z" fill="white"/>
<path d="M147.832 18.2932C149.804 18.2932 151.403 16.6942 151.403 14.7217C151.403 12.7492 149.804 11.1502 147.832 11.1502C145.859 11.1502 144.26 12.7492 144.26 14.7217C144.26 16.6942 145.859 18.2932 147.832 18.2932Z" fill="white"/>
<path d="M75.2061 35.8429L80.3326 17.0457C80.6054 15.9911 81.2209 15.0572 82.0824 14.3905C82.9439 13.7239 84.0025 13.3625 85.0918 13.3632C86.2037 13.3634 87.2828 13.7402 88.1532 14.4322C89.0237 15.1242 89.6341 16.0906 89.8851 17.1739L94.5758 35.8686H94.7467L99.3776 14.4226C99.5241 13.7451 99.8982 13.1382 100.438 12.7029C100.977 12.2676 101.649 12.0302 102.342 12.0303C102.804 12.0305 103.259 12.136 103.674 12.3388C104.088 12.5416 104.451 12.8363 104.735 13.2005C105.018 13.5647 105.215 13.9888 105.31 14.4404C105.404 14.8921 105.395 15.3594 105.282 15.8068L99.1042 40.1407C98.8392 41.1751 98.238 42.0922 97.3951 42.748C96.5523 43.4037 95.5155 43.7609 94.4477 43.7634C93.3624 43.7629 92.3091 43.3954 91.4591 42.7207C90.609 42.0459 90.0122 41.1036 89.7654 40.0467L85.4933 21.0957C85.4653 20.9635 85.3927 20.8449 85.2877 20.7598C85.1827 20.6748 85.0517 20.6284 84.9166 20.6284C84.7815 20.6284 84.6504 20.6748 84.5454 20.7598C84.4405 20.8449 84.3679 20.9635 84.3399 21.0957L79.7174 40.0552C79.4447 41.1175 78.8267 42.059 77.9606 42.7317C77.0945 43.4045 76.0294 43.7704 74.9327 43.772C73.8251 43.7709 72.7498 43.3982 71.8792 42.7134C71.0086 42.0287 70.3929 41.0716 70.1309 39.9954L64.3464 16.1998C64.219 15.6998 64.2085 15.1771 64.3158 14.6723C64.4231 14.1676 64.6453 13.6944 64.9652 13.2894C65.285 12.8845 65.6939 12.5587 66.16 12.3373C66.6262 12.116 67.1371 12.0051 67.653 12.0132C68.4299 12.0136 69.1827 12.2826 69.7838 12.7747C70.3849 13.2668 70.7973 13.9517 70.9511 14.7131L75.2061 35.8429Z" fill="white"/>
<path d="M125.42 12.0131C125.861 12.012 126.297 12.0979 126.703 12.2658C127.11 12.4337 127.48 12.6804 127.791 12.9916C128.102 13.3029 128.349 13.6725 128.517 14.0794C128.685 14.4863 128.771 14.9223 128.77 15.3625V28.1788L134.443 22.6848C134.723 22.3346 135.072 22.0466 135.469 21.8391C135.867 21.6317 136.303 21.5094 136.75 21.4801C137.285 21.4776 137.81 21.627 138.263 21.9108C138.717 22.1945 139.08 22.6011 139.312 23.0833C139.544 23.5655 139.634 24.1035 139.572 24.6349C139.51 25.1663 139.299 25.6693 138.963 26.0854L135.34 29.4348C135.09 29.743 134.945 30.1226 134.925 30.5188C134.905 30.9151 135.012 31.3074 135.229 31.6392L139.988 38.8675C140.301 39.3474 140.478 39.9027 140.501 40.4748C140.524 41.0469 140.392 41.6146 140.118 42.1179C139.845 42.6212 139.441 43.0413 138.949 43.334C138.457 43.6266 137.895 43.7809 137.322 43.7805C136.757 43.7787 136.201 43.6267 135.713 43.3399C135.225 43.0532 134.822 42.6421 134.546 42.1485L128.77 31.7759V40.4311C128.77 41.3194 128.417 42.1714 127.789 42.7995C127.161 43.4276 126.309 43.7805 125.42 43.7805C124.534 43.7782 123.684 43.4243 123.058 42.7965C122.431 42.1686 122.08 41.318 122.08 40.4311V15.3966C122.078 14.9572 122.164 14.5219 122.331 14.1156C122.499 13.7092 122.745 13.3399 123.055 13.0288C123.365 12.7177 123.734 12.4709 124.14 12.3024C124.546 12.134 124.981 12.0473 125.42 12.0473V12.0131Z" fill="white"/>
</g>
<defs>
<clipPath id="clip0_506_1752">
<rect width="209.051" height="52" fill="white"/>
</clipPath>
</defs>
</svg>
