<?xml version="1.0" standalone="no"?><!DOCTYPE svg PUBLIC "-//W3C//DTD SVG 1.1//EN" "http://www.w3.org/Graphics/SVG/1.1/DTD/svg11.dtd"><svg t="1655810709523" class="icon" viewBox="0 0 1024 1024" version="1.1" xmlns="http://www.w3.org/2000/svg" p-id="7447" xmlns:xlink="http://www.w3.org/1999/xlink" width="48" height="48"><defs><style type="text/css">@font-face { font-family: feedback-iconfont; src: url("//at.alicdn.com/t/font_1031158_u69w8yhxdu.woff2?t=1630033759944") format("woff2"), url("//at.alicdn.com/t/font_1031158_u69w8yhxdu.woff?t=1630033759944") format("woff"), url("//at.alicdn.com/t/font_1031158_u69w8yhxdu.ttf?t=1630033759944") format("truetype"); }
</style></defs><path d="M179.891892 852.272432V171.589189c0-22.887784 13.007568-44.170378 33.930378-54.022919l397.920865 394.378379-397.920865 394.378378A60.139243 60.139243 0 0 1 179.891892 852.272432z" fill="#00D8FF" p-id="7448"></path><path d="M737.944216 636.955676l-435.00627 248.859675 343.095351-339.968 91.883244 91.108325" fill="#FF003C" p-id="7449"></path><path d="M873.222919 464.204108c14.972541 11.45773 23.662703 28.782703 23.662703 47.740541 0.387459 18.542703-8.302703 35.867676-22.887784 47.325405l-92.685838 52.860541-100.960865-100.185946 100.960865-100.185946 91.883243 52.445405" fill="#FFCA00" p-id="7450"></path><path d="M302.937946 138.073946l435.00627 248.832-91.883243 91.108324L302.91027 138.073946z" fill="#00F765" p-id="7451"></path></svg>